<?xml version="1.0" encoding="UTF-8"?>
<svg xmlns="http://www.w3.org/2000/svg" xmlns:xlink="http://www.w3.org/1999/xlink" width="375pt" height="374.999991pt" viewBox="0 0 375 374.999991" version="1.2">
<defs>
<clipPath id="clip1">
  <path d="M 73.792969 51 L 145 51 L 145 213 L 73.792969 213 Z M 73.792969 51 "/>
</clipPath>
<clipPath id="clip2">
  <path d="M 73.792969 37.5 L 182 37.5 L 182 95 L 73.792969 95 Z M 73.792969 37.5 "/>
</clipPath>
<clipPath id="clip3">
  <path d="M 245 280 L 290 280 L 290 345 L 245 345 Z M 245 280 "/>
</clipPath>
<clipPath id="clip4">
  <path d="M 288 297 L 314.542969 297 L 314.542969 345 L 288 345 Z M 288 297 "/>
</clipPath>
</defs>
<g id="surface1">
<path style=" stroke:none;fill-rule:nonzero;fill:rgb(39.608765%,38.42926%,38.819885%);fill-opacity:1;" d="M 114.988281 214.28125 L 126.6875 209.761719 L 135.285156 214.792969 L 123.21875 219.445312 L 114.988281 214.28125 "/>
<path style=" stroke:none;fill-rule:nonzero;fill:rgb(48.239136%,47.44873%,47.44873%);fill-opacity:1;" d="M 123.242188 219.632812 L 135.269531 213.863281 L 185.347656 244.761719 L 175.015625 251.664062 L 123.242188 219.632812 "/>
<path style=" stroke:none;fill-rule:nonzero;fill:rgb(48.239136%,47.44873%,47.44873%);fill-opacity:1;" d="M 74.222656 189.109375 L 84.746094 184.757812 L 134.605469 215.191406 L 114.871094 214.242188 L 74.222656 189.109375 "/>
<path style=" stroke:none;fill-rule:nonzero;fill:rgb(82.749939%,82.348633%,82.348633%);fill-opacity:1;" d="M 123.242188 219.675781 L 114.988281 214.359375 L 113.8125 151.664062 L 122.042969 156.832031 L 123.242188 219.675781 "/>
<path style=" stroke:none;fill-rule:nonzero;fill:rgb(39.608765%,38.42926%,38.819885%);fill-opacity:1;" d="M 113.8125 151.664062 L 125.511719 147.152344 L 134.117188 152.179688 L 122.042969 156.832031 L 113.8125 151.664062 "/>
<path style=" stroke:none;fill-rule:nonzero;fill:rgb(56.858826%,56.079102%,56.079102%);fill-opacity:1;" d="M 122.050781 156.832031 L 134.117188 152.179688 L 135.269531 213.898438 L 123.242188 219.675781 L 122.050781 156.832031 "/>
<path style=" stroke:none;fill-rule:nonzero;fill:rgb(82.749939%,82.348633%,82.348633%);fill-opacity:1;" d="M 74.222656 189.109375 L 74.421875 199.789062 L 175.222656 262.53125 L 175.015625 251.664062 L 74.222656 189.109375 "/>
<path style=" stroke:none;fill-rule:nonzero;fill:rgb(39.608765%,38.42926%,38.819885%);fill-opacity:1;" d="M 175.015625 251.664062 L 185.347656 244.761719 L 185.527344 254.601562 L 175.222656 262.53125 L 175.015625 251.664062 "/>
<g clip-path="url(#clip1)" clip-rule="nonzero">
<path style=" stroke:none;fill-rule:nonzero;fill:rgb(19.999695%,29.798889%,47.44873%);fill-opacity:1;" d="M 144.4375 212.074219 L 76.039062 168.015625 L 73.867188 51.796875 L 142.246094 94.722656 L 144.4375 212.074219 "/>
</g>
<path style=" stroke:none;fill-rule:nonzero;fill:rgb(12.548828%,16.468811%,25.099182%);fill-opacity:1;" d="M 140.34375 203.230469 L 80.035156 165.160156 L 78.03125 58.386719 L 138.34375 96.496094 L 140.34375 203.230469 "/>
<path style=" stroke:none;fill-rule:nonzero;fill:rgb(96.469116%,52.938843%,7.058716%);fill-opacity:1;" d="M 84.832031 62.6875 L 78.03125 58.386719 L 80.035156 165.160156 L 86.84375 169.457031 L 84.832031 62.6875 "/>
<path style=" stroke:none;fill-rule:nonzero;fill:rgb(10.198975%,13.328552%,20.388794%);fill-opacity:1;" d="M 98.328125 176.707031 L 89.5625 171.171875 L 89.269531 155.53125 L 98.03125 160.875 L 98.328125 176.707031 M 97.976562 158.046875 L 89.21875 152.707031 L 88.953125 138.65625 L 97.714844 143.992188 L 97.976562 158.046875 M 97.660156 141.164062 L 88.898438 135.820312 L 88.578125 118.691406 L 97.339844 124.035156 L 97.660156 141.164062 M 97.289062 121.195312 L 88.527344 115.855469 L 88.195312 98.34375 L 96.960938 103.683594 L 97.289062 121.195312 M 96.90625 100.851562 L 88.144531 95.507812 L 87.839844 79.410156 L 96.601562 84.753906 L 96.90625 100.851562 M 96.550781 81.921875 L 87.785156 76.574219 L 87.558594 64.40625 L 96.328125 69.945312 L 96.550781 81.921875 "/>
<path style=" stroke:none;fill-rule:nonzero;fill:rgb(16.468811%,24.308777%,38.42926%);fill-opacity:1;" d="M 109.210938 183.578125 L 101.046875 178.425781 L 109.210938 183.578125 "/>
<path style=" stroke:none;fill-rule:nonzero;fill:rgb(10.198975%,13.328552%,20.388794%);fill-opacity:1;" d="M 109.210938 183.578125 L 101.046875 178.425781 L 100.75 162.535156 L 108.910156 167.507812 L 109.210938 183.578125 M 108.855469 164.679688 L 100.695312 159.703125 L 100.433594 145.652344 L 108.589844 150.628906 L 108.855469 164.679688 M 108.539062 147.792969 L 100.382812 142.820312 L 100.058594 125.691406 L 108.21875 130.664062 L 108.539062 147.792969 M 108.164062 127.828125 L 100.003906 122.855469 L 99.675781 105.34375 L 107.835938 110.316406 L 108.164062 127.828125 M 107.78125 107.484375 L 99.625 102.507812 L 99.324219 86.410156 L 107.480469 91.382812 L 107.78125 107.484375 M 107.425781 88.550781 L 99.269531 83.578125 L 99.046875 71.667969 L 107.207031 76.824219 L 107.425781 88.550781 "/>
<path style=" stroke:none;fill-rule:nonzero;fill:rgb(16.468811%,24.308777%,38.42926%);fill-opacity:1;" d="M 120.996094 191.023438 L 111.628906 185.105469 L 120.996094 191.019531 L 120.996094 191.023438 "/>
<path style=" stroke:none;fill-rule:nonzero;fill:rgb(10.198975%,13.328552%,20.388794%);fill-opacity:1;" d="M 120.996094 191.019531 L 111.628906 185.105469 L 111.328125 168.980469 L 120.691406 174.691406 L 120.996094 191.019531 M 120.640625 171.859375 L 111.273438 166.148438 L 111.007812 152.101562 L 120.375 157.8125 L 120.640625 171.859375 M 120.320312 154.980469 L 110.957031 149.269531 L 110.636719 132.136719 L 120.003906 137.847656 L 120.320312 154.980469 M 119.949219 135.011719 L 110.582031 129.300781 L 110.253906 111.789062 L 119.625 117.5 L 119.949219 135.011719 M 119.570312 114.667969 L 110.203125 108.953125 L 109.898438 92.859375 L 119.265625 98.570312 L 119.570312 114.667969 M 119.214844 95.734375 L 109.84375 90.023438 L 109.628906 78.351562 L 119 84.273438 L 119.214844 95.734375 "/>
<path style=" stroke:none;fill-rule:nonzero;fill:rgb(16.468811%,24.308777%,38.42926%);fill-opacity:1;" d="M 133.089844 198.65625 L 123.417969 192.546875 L 133.089844 198.652344 L 133.089844 198.65625 "/>
<path style=" stroke:none;fill-rule:nonzero;fill:rgb(10.198975%,13.328552%,20.388794%);fill-opacity:1;" d="M 133.089844 198.652344 L 123.417969 192.546875 L 123.113281 176.164062 L 132.777344 182.058594 L 133.089844 198.65625 M 132.726562 179.230469 L 123.058594 173.335938 L 122.796875 159.285156 L 132.464844 165.183594 L 132.726562 179.230469 M 132.410156 162.347656 L 122.742188 156.453125 L 122.417969 139.324219 L 132.089844 145.21875 L 132.410156 162.347656 M 132.035156 142.382812 L 122.367188 136.488281 L 122.035156 118.976562 L 131.707031 124.867188 L 132.035156 142.382812 M 131.652344 122.035156 L 121.984375 116.136719 L 121.683594 100.039062 L 131.355469 105.9375 L 131.652344 122.035156 "/>
<path style=" stroke:none;fill-rule:nonzero;fill:rgb(16.468811%,24.308777%,38.42926%);fill-opacity:1;" d="M 123.269531 86.964844 L 121.414062 85.796875 L 123.269531 86.964844 "/>
<path style=" stroke:none;fill-rule:nonzero;fill:rgb(10.198975%,13.328552%,20.388794%);fill-opacity:1;" d="M 131.300781 103.105469 L 121.628906 97.210938 L 121.414062 85.796875 L 123.269531 86.964844 L 131.089844 91.914062 L 131.300781 103.105469 "/>
<path style=" stroke:none;fill-rule:nonzero;fill:rgb(10.198975%,13.328552%,20.388794%);fill-opacity:1;" d="M 140.34375 203.230469 L 134.902344 199.796875 L 134.59375 183.164062 L 140.03125 186.480469 L 139.976562 183.648438 L 134.539062 180.335938 L 134.273438 166.285156 L 139.710938 169.601562 L 139.660156 166.765625 L 134.222656 163.453125 L 133.902344 146.320312 L 139.335938 149.636719 L 139.289062 146.808594 L 140.34375 203.230469 M 139.289062 146.804688 L 133.847656 143.488281 L 133.519531 125.972656 L 138.957031 129.289062 L 138.917969 126.980469 L 139.289062 146.804688 M 138.90625 126.457031 L 133.46875 123.140625 L 133.164062 107.039062 L 138.601562 110.355469 L 138.546875 107.523438 L 133.109375 104.210938 L 132.898438 93.058594 L 138.34375 96.496094 L 138.90625 126.457031 "/>
<g clip-path="url(#clip2)" clip-rule="nonzero">
<path style=" stroke:none;fill-rule:nonzero;fill:rgb(17.649841%,23.529053%,36.079407%);fill-opacity:1;" d="M 73.867188 51.796875 L 111.601562 37.242188 L 181.761719 78.609375 L 142.246094 94.722656 L 73.867188 51.796875 "/>
</g>
<path style=" stroke:none;fill-rule:nonzero;fill:rgb(12.548828%,16.468811%,25.099182%);fill-opacity:1;" d="M 142.246094 94.722656 L 181.761719 78.609375 L 183.878906 191.652344 L 144.4375 212.074219 L 142.246094 94.722656 "/>
<path style=" stroke:none;fill-rule:nonzero;fill:rgb(10.198975%,13.328552%,20.388794%);fill-opacity:1;" d="M 133.164062 107.039062 L 131.355469 105.9375 L 131.300781 103.105469 L 133.109375 104.210938 L 133.164062 107.039062 M 121.683594 100.039062 L 119.265625 98.570312 L 119.214844 95.734375 L 121.628906 97.210938 L 121.683594 100.039062 M 109.898438 92.859375 L 107.480469 91.382812 L 107.425781 88.550781 L 109.84375 90.023438 L 109.898438 92.859375 M 99.324219 86.410156 L 96.601562 84.753906 L 96.550781 81.921875 L 99.269531 83.578125 L 99.324219 86.410156 M 87.839844 79.410156 L 85.117188 77.753906 L 85.066406 74.917969 L 87.785156 76.574219 L 87.839844 79.410156 "/>
<path style=" stroke:none;fill-rule:nonzero;fill:rgb(79.60968%,43.139648%,5.488586%);fill-opacity:1;" d="M 85.117188 77.753906 L 78.320312 73.609375 L 78.269531 70.773438 L 85.066406 74.917969 L 85.117188 77.753906 "/>
<path style=" stroke:none;fill-rule:nonzero;fill:rgb(8.239746%,10.978699%,16.468811%);fill-opacity:1;" d="M 96.601562 84.753906 L 87.839844 79.410156 L 87.785156 76.574219 L 96.550781 81.921875 L 96.601562 84.753906 "/>
<path style=" stroke:none;fill-rule:nonzero;fill:rgb(8.239746%,10.978699%,16.468811%);fill-opacity:1;" d="M 107.480469 91.382812 L 99.324219 86.410156 L 99.269531 83.578125 L 107.425781 88.550781 L 107.480469 91.382812 "/>
<path style=" stroke:none;fill-rule:nonzero;fill:rgb(8.239746%,10.978699%,16.468811%);fill-opacity:1;" d="M 119.265625 98.570312 L 109.898438 92.859375 L 109.84375 90.023438 L 119.214844 95.734375 L 119.265625 98.570312 "/>
<path style=" stroke:none;fill-rule:nonzero;fill:rgb(8.239746%,10.978699%,16.468811%);fill-opacity:1;" d="M 131.355469 105.9375 L 121.683594 100.039062 L 121.628906 97.210938 L 131.300781 103.105469 L 131.355469 105.9375 "/>
<path style=" stroke:none;fill-rule:nonzero;fill:rgb(8.239746%,10.978699%,16.468811%);fill-opacity:1;" d="M 138.601562 110.355469 L 133.164062 107.039062 L 133.109375 104.210938 L 138.546875 107.523438 L 138.601562 110.355469 "/>
<path style=" stroke:none;fill-rule:nonzero;fill:rgb(16.468811%,24.308777%,38.42926%);fill-opacity:1;" d="M 138.917969 126.980469 L 138.90625 126.457031 L 138.917969 126.980469 "/>
<path style=" stroke:none;fill-rule:nonzero;fill:rgb(10.198975%,13.328552%,20.388794%);fill-opacity:1;" d="M 133.519531 125.972656 L 131.707031 124.867188 L 131.652344 122.035156 L 133.46875 123.140625 L 133.519531 125.972656 M 122.035156 118.976562 L 119.625 117.5 L 119.570312 114.667969 L 121.984375 116.136719 L 122.035156 118.976562 M 110.253906 111.789062 L 107.835938 110.316406 L 107.78125 107.484375 L 110.203125 108.953125 L 110.253906 111.789062 M 99.675781 105.34375 L 96.960938 103.683594 L 96.90625 100.851562 L 99.625 102.507812 L 99.675781 105.34375 M 88.195312 98.34375 L 85.476562 96.683594 L 85.421875 93.847656 L 88.144531 95.507812 L 88.195312 98.34375 "/>
<path style=" stroke:none;fill-rule:nonzero;fill:rgb(79.60968%,43.139648%,5.488586%);fill-opacity:1;" d="M 85.476562 96.683594 L 78.675781 92.535156 L 78.621094 89.703125 L 85.421875 93.847656 L 85.476562 96.683594 "/>
<path style=" stroke:none;fill-rule:nonzero;fill:rgb(8.239746%,10.978699%,16.468811%);fill-opacity:1;" d="M 96.960938 103.683594 L 88.195312 98.34375 L 88.144531 95.507812 L 96.90625 100.851562 L 96.960938 103.683594 "/>
<path style=" stroke:none;fill-rule:nonzero;fill:rgb(8.239746%,10.978699%,16.468811%);fill-opacity:1;" d="M 107.835938 110.316406 L 99.675781 105.34375 L 99.625 102.507812 L 107.78125 107.484375 L 107.835938 110.316406 "/>
<path style=" stroke:none;fill-rule:nonzero;fill:rgb(8.239746%,10.978699%,16.468811%);fill-opacity:1;" d="M 119.625 117.5 L 110.253906 111.789062 L 110.203125 108.953125 L 119.570312 114.667969 L 119.625 117.5 "/>
<path style=" stroke:none;fill-rule:nonzero;fill:rgb(8.239746%,10.978699%,16.468811%);fill-opacity:1;" d="M 131.707031 124.867188 L 122.035156 118.976562 L 121.984375 116.136719 L 131.652344 122.035156 L 131.707031 124.867188 "/>
<path style=" stroke:none;fill-rule:nonzero;fill:rgb(8.239746%,10.978699%,16.468811%);fill-opacity:1;" d="M 138.957031 129.289062 L 133.519531 125.972656 L 133.46875 123.140625 L 138.90625 126.457031 L 138.917969 126.980469 L 138.957031 129.289062 "/>
<path style=" stroke:none;fill-rule:nonzero;fill:rgb(16.468811%,24.308777%,38.42926%);fill-opacity:1;" d="M 139.289062 146.808594 L 139.289062 146.804688 L 139.289062 146.808594 M 79.054688 112.886719 L 79.050781 112.667969 L 79.054688 112.886719 "/>
<path style=" stroke:none;fill-rule:nonzero;fill:rgb(10.198975%,13.328552%,20.388794%);fill-opacity:1;" d="M 133.902344 146.320312 L 132.089844 145.21875 L 132.035156 142.382812 L 133.847656 143.488281 L 133.902344 146.320312 M 122.417969 139.324219 L 120.003906 137.847656 L 119.949219 135.011719 L 122.367188 136.488281 L 122.417969 139.324219 M 110.636719 132.136719 L 108.21875 130.664062 L 108.164062 127.828125 L 110.582031 129.300781 L 110.636719 132.136719 M 100.058594 125.691406 L 97.339844 124.035156 L 97.289062 121.195312 L 100.003906 122.855469 L 100.058594 125.691406 M 88.578125 118.691406 L 85.859375 117.03125 L 85.804688 114.195312 L 88.527344 115.855469 L 88.578125 118.691406 "/>
<path style=" stroke:none;fill-rule:nonzero;fill:rgb(79.60968%,43.139648%,5.488586%);fill-opacity:1;" d="M 85.859375 117.03125 L 79.054688 112.886719 L 79.050781 112.667969 L 79.003906 110.050781 L 85.804688 114.195312 L 85.859375 117.03125 "/>
<path style=" stroke:none;fill-rule:nonzero;fill:rgb(8.239746%,10.978699%,16.468811%);fill-opacity:1;" d="M 97.339844 124.035156 L 88.578125 118.691406 L 88.527344 115.855469 L 97.289062 121.195312 L 97.339844 124.035156 "/>
<path style=" stroke:none;fill-rule:nonzero;fill:rgb(8.239746%,10.978699%,16.468811%);fill-opacity:1;" d="M 108.21875 130.664062 L 100.058594 125.691406 L 100.003906 122.855469 L 108.164062 127.828125 L 108.21875 130.664062 "/>
<path style=" stroke:none;fill-rule:nonzero;fill:rgb(8.239746%,10.978699%,16.468811%);fill-opacity:1;" d="M 120.003906 137.847656 L 110.636719 132.136719 L 110.582031 129.300781 L 119.949219 135.011719 L 120.003906 137.847656 "/>
<path style=" stroke:none;fill-rule:nonzero;fill:rgb(8.239746%,10.978699%,16.468811%);fill-opacity:1;" d="M 132.089844 145.21875 L 122.417969 139.324219 L 122.367188 136.488281 L 132.035156 142.382812 L 132.089844 145.21875 "/>
<path style=" stroke:none;fill-rule:nonzero;fill:rgb(8.239746%,10.978699%,16.468811%);fill-opacity:1;" d="M 139.335938 149.636719 L 133.902344 146.320312 L 133.847656 143.488281 L 139.289062 146.804688 L 139.289062 146.808594 L 139.335938 149.636719 "/>
<path style=" stroke:none;fill-rule:nonzero;fill:rgb(10.198975%,13.328552%,20.388794%);fill-opacity:1;" d="M 134.273438 166.285156 L 132.464844 165.183594 L 132.410156 162.347656 L 134.222656 163.453125 L 134.273438 166.285156 M 122.796875 159.285156 L 120.375 157.8125 L 120.320312 154.980469 L 122.742188 156.453125 L 122.796875 159.285156 M 111.007812 152.101562 L 108.589844 150.628906 L 108.539062 147.792969 L 110.957031 149.269531 L 111.007812 152.101562 M 100.433594 145.652344 L 97.714844 143.992188 L 97.660156 141.164062 L 100.382812 142.820312 L 100.433594 145.652344 M 88.953125 138.65625 L 86.230469 136.992188 L 86.179688 134.164062 L 88.898438 135.820312 L 88.953125 138.65625 "/>
<path style=" stroke:none;fill-rule:nonzero;fill:rgb(79.60968%,43.139648%,5.488586%);fill-opacity:1;" d="M 86.230469 136.992188 L 79.429688 132.847656 L 79.417969 132.414062 L 79.375 130.019531 L 86.179688 134.164062 L 86.230469 136.992188 "/>
<path style=" stroke:none;fill-rule:nonzero;fill:rgb(8.239746%,10.978699%,16.468811%);fill-opacity:1;" d="M 97.714844 143.992188 L 88.953125 138.65625 L 88.898438 135.820312 L 97.660156 141.164062 L 97.714844 143.992188 "/>
<path style=" stroke:none;fill-rule:nonzero;fill:rgb(8.239746%,10.978699%,16.468811%);fill-opacity:1;" d="M 108.589844 150.628906 L 100.433594 145.652344 L 100.382812 142.820312 L 108.539062 147.792969 L 108.589844 150.628906 "/>
<path style=" stroke:none;fill-rule:nonzero;fill:rgb(8.239746%,10.978699%,16.468811%);fill-opacity:1;" d="M 120.375 157.8125 L 111.007812 152.101562 L 110.957031 149.269531 L 120.320312 154.980469 L 120.375 157.8125 "/>
<path style=" stroke:none;fill-rule:nonzero;fill:rgb(8.239746%,10.978699%,16.468811%);fill-opacity:1;" d="M 132.464844 165.183594 L 122.796875 159.285156 L 122.742188 156.453125 L 132.410156 162.347656 L 132.464844 165.183594 "/>
<path style=" stroke:none;fill-rule:nonzero;fill:rgb(8.239746%,10.978699%,16.468811%);fill-opacity:1;" d="M 139.710938 169.601562 L 134.273438 166.285156 L 134.222656 163.453125 L 139.660156 166.765625 L 139.710938 169.601562 "/>
<path style=" stroke:none;fill-rule:nonzero;fill:rgb(16.468811%,24.308777%,38.42926%);fill-opacity:1;" d="M 79.730469 148.871094 L 79.691406 146.898438 L 79.695312 146.898438 L 79.730469 148.871094 "/>
<path style=" stroke:none;fill-rule:nonzero;fill:rgb(10.198975%,13.328552%,20.388794%);fill-opacity:1;" d="M 134.59375 183.164062 L 132.777344 182.058594 L 132.726562 179.230469 L 134.539062 180.335938 L 134.59375 183.164062 M 123.113281 176.164062 L 120.691406 174.691406 L 120.640625 171.859375 L 123.058594 173.335938 L 123.113281 176.164062 M 111.328125 168.980469 L 108.910156 167.507812 L 108.855469 164.679688 L 111.273438 166.148438 L 111.328125 168.980469 M 100.75 162.535156 L 98.03125 160.875 L 97.976562 158.046875 L 100.695312 159.703125 L 100.75 162.535156 M 89.269531 155.53125 L 86.550781 153.875 L 86.496094 151.042969 L 89.21875 152.707031 L 89.269531 155.53125 "/>
<path style=" stroke:none;fill-rule:nonzero;fill:rgb(79.60968%,43.139648%,5.488586%);fill-opacity:1;" d="M 86.550781 153.875 L 79.75 149.730469 L 79.730469 148.871094 L 79.695312 146.898438 L 86.496094 151.042969 L 86.550781 153.875 "/>
<path style=" stroke:none;fill-rule:nonzero;fill:rgb(8.239746%,10.978699%,16.468811%);fill-opacity:1;" d="M 98.03125 160.875 L 89.269531 155.53125 L 89.21875 152.707031 L 97.976562 158.046875 L 98.03125 160.875 "/>
<path style=" stroke:none;fill-rule:nonzero;fill:rgb(8.239746%,10.978699%,16.468811%);fill-opacity:1;" d="M 108.910156 167.507812 L 100.75 162.535156 L 100.695312 159.703125 L 108.855469 164.679688 L 108.910156 167.507812 "/>
<path style=" stroke:none;fill-rule:nonzero;fill:rgb(8.239746%,10.978699%,16.468811%);fill-opacity:1;" d="M 120.691406 174.691406 L 111.328125 168.980469 L 111.273438 166.148438 L 120.640625 171.859375 L 120.691406 174.691406 "/>
<path style=" stroke:none;fill-rule:nonzero;fill:rgb(8.239746%,10.978699%,16.468811%);fill-opacity:1;" d="M 132.777344 182.058594 L 123.113281 176.164062 L 123.058594 173.335938 L 132.726562 179.230469 L 132.777344 182.058594 "/>
<path style=" stroke:none;fill-rule:nonzero;fill:rgb(8.239746%,10.978699%,16.468811%);fill-opacity:1;" d="M 140.03125 186.480469 L 134.59375 183.164062 L 134.539062 180.335938 L 139.976562 183.648438 L 140.03125 186.480469 "/>
<path style=" stroke:none;fill-rule:nonzero;fill:rgb(19.999695%,29.798889%,47.44873%);fill-opacity:1;" d="M 207.992188 293.644531 L 164.355469 266.898438 L 163.632812 228.464844 L 207.289062 255.867188 L 207.992188 293.644531 "/>
<path style=" stroke:none;fill-rule:nonzero;fill:rgb(12.548828%,16.468811%,25.099182%);fill-opacity:1;" d="M 206.769531 291.550781 L 166.25 266.195312 L 165.601562 231.429688 L 206.117188 256.625 L 206.769531 291.550781 "/>
<path style=" stroke:none;fill-rule:nonzero;fill:rgb(96.469116%,52.938843%,7.058716%);fill-opacity:1;" d="M 170.640625 235.417969 L 166.296875 232.671875 L 166.914062 265.636719 L 171.257812 268.382812 L 170.640625 235.417969 "/>
<path style=" stroke:none;fill-rule:nonzero;fill:rgb(10.198975%,13.328552%,20.388794%);fill-opacity:1;" d="M 178.585938 273.007812 L 172.996094 269.476562 L 172.78125 258.183594 L 178.371094 261.589844 L 178.585938 273.007812 M 178.339844 259.78125 L 172.75 256.375 L 172.554688 246.09375 L 178.144531 249.503906 L 178.339844 259.78125 M 178.113281 247.691406 L 172.519531 244.285156 L 172.375 236.519531 L 177.96875 240.050781 L 178.113281 247.691406 "/>
<path style=" stroke:none;fill-rule:nonzero;fill:rgb(10.198975%,13.328552%,20.388794%);fill-opacity:1;" d="M 185.535156 277.394531 L 180.324219 274.105469 L 180.109375 262.648438 L 185.320312 265.824219 L 185.535156 277.394531 M 185.285156 264.015625 L 180.078125 260.839844 L 179.886719 250.5625 L 185.09375 253.742188 L 185.285156 264.015625 M 185.058594 251.929688 L 179.851562 248.753906 L 179.714844 241.363281 L 184.921875 244.644531 L 185.058594 251.929688 "/>
<path style=" stroke:none;fill-rule:nonzero;fill:rgb(10.198975%,13.328552%,20.388794%);fill-opacity:1;" d="M 193.058594 282.148438 L 187.078125 278.367188 L 186.863281 266.765625 L 192.84375 270.414062 L 193.058594 282.148438 M 192.808594 268.605469 L 186.832031 264.960938 L 186.636719 254.679688 L 192.617188 258.324219 L 192.808594 268.605469 M 192.582031 256.515625 L 186.605469 252.867188 L 186.464844 245.417969 L 192.445312 249.199219 L 192.582031 256.515625 "/>
<path style=" stroke:none;fill-rule:nonzero;fill:rgb(10.198975%,13.328552%,20.388794%);fill-opacity:1;" d="M 200.78125 287.019531 L 194.605469 283.121094 L 194.386719 271.351562 L 200.558594 275.113281 L 200.78125 287.019531 M 200.523438 273.308594 L 194.351562 269.546875 L 194.160156 259.265625 L 200.332031 263.03125 L 200.523438 273.308594 M 200.296875 261.21875 L 194.125 257.457031 L 193.988281 250.175781 L 200.164062 254.078125 L 200.296875 261.21875 "/>
<path style=" stroke:none;fill-rule:nonzero;fill:rgb(10.198975%,13.328552%,20.388794%);fill-opacity:1;" d="M 205.414062 289.941406 L 201.9375 287.753906 L 201.714844 275.820312 L 205.1875 277.9375 L 205.414062 289.941406 M 205.152344 276.128906 L 201.683594 274.011719 L 201.488281 263.738281 L 204.960938 265.851562 L 204.945312 265.074219 L 205.152344 276.128906 M 204.929688 264.042969 L 201.457031 261.925781 L 201.320312 254.808594 L 204.792969 257 L 204.929688 264.042969 "/>
<path style=" stroke:none;fill-rule:nonzero;fill:rgb(17.649841%,23.529053%,36.079407%);fill-opacity:1;" d="M 163.632812 228.464844 L 187.71875 219.175781 L 232.515625 245.578125 L 207.289062 255.867188 L 163.632812 228.464844 "/>
<path style=" stroke:none;fill-rule:nonzero;fill:rgb(12.548828%,16.468811%,25.099182%);fill-opacity:1;" d="M 207.289062 255.867188 L 232.515625 245.578125 L 233.214844 282.96875 L 207.992188 293.644531 L 207.289062 255.867188 "/>
<path style=" stroke:none;fill-rule:nonzero;fill:rgb(10.198975%,13.328552%,20.388794%);fill-opacity:1;" d="M 204.945312 265.074219 L 204.929688 264.042969 L 204.945312 265.074219 M 201.488281 263.738281 L 200.332031 263.03125 L 200.296875 261.21875 L 201.457031 261.925781 L 201.488281 263.738281 M 194.160156 259.265625 L 192.617188 258.324219 L 192.582031 256.515625 L 194.125 257.457031 L 194.160156 259.265625 M 186.636719 254.679688 L 185.09375 253.742188 L 185.058594 251.929688 L 186.605469 252.867188 L 186.636719 254.679688 M 179.886719 250.5625 L 178.144531 249.503906 L 178.113281 247.691406 L 179.851562 248.753906 L 179.886719 250.5625 M 172.554688 246.09375 L 170.816406 245.035156 L 170.78125 243.226562 L 172.519531 244.285156 L 172.554688 246.09375 M 166.476562 242.390625 L 166.457031 241.335938 L 166.476562 242.390625 "/>
<path style=" stroke:none;fill-rule:nonzero;fill:rgb(79.60968%,43.139648%,5.488586%);fill-opacity:1;" d="M 170.816406 245.035156 L 166.476562 242.390625 L 166.457031 241.335938 L 166.445312 240.582031 L 170.78125 243.226562 L 170.816406 245.035156 "/>
<path style=" stroke:none;fill-rule:nonzero;fill:rgb(8.239746%,10.978699%,16.468811%);fill-opacity:1;" d="M 178.144531 249.503906 L 172.554688 246.09375 L 172.519531 244.285156 L 178.113281 247.691406 L 178.144531 249.503906 "/>
<path style=" stroke:none;fill-rule:nonzero;fill:rgb(8.239746%,10.978699%,16.468811%);fill-opacity:1;" d="M 185.09375 253.742188 L 179.886719 250.5625 L 179.851562 248.753906 L 185.058594 251.929688 L 185.09375 253.742188 "/>
<path style=" stroke:none;fill-rule:nonzero;fill:rgb(8.239746%,10.978699%,16.468811%);fill-opacity:1;" d="M 192.617188 258.324219 L 186.636719 254.679688 L 186.605469 252.867188 L 192.582031 256.515625 L 192.617188 258.324219 "/>
<path style=" stroke:none;fill-rule:nonzero;fill:rgb(8.239746%,10.978699%,16.468811%);fill-opacity:1;" d="M 200.332031 263.03125 L 194.160156 259.265625 L 194.125 257.457031 L 200.296875 261.21875 L 200.332031 263.03125 "/>
<path style=" stroke:none;fill-rule:nonzero;fill:rgb(8.239746%,10.978699%,16.468811%);fill-opacity:1;" d="M 204.960938 265.851562 L 201.488281 263.738281 L 201.457031 261.925781 L 204.929688 264.042969 L 204.945312 265.074219 L 204.960938 265.851562 "/>
<path style=" stroke:none;fill-rule:nonzero;fill:rgb(10.198975%,13.328552%,20.388794%);fill-opacity:1;" d="M 205.1875 277.9375 L 205.152344 276.128906 L 205.1875 277.9375 M 201.714844 275.820312 L 200.558594 275.113281 L 200.523438 273.308594 L 201.683594 274.011719 L 201.714844 275.820312 M 194.386719 271.351562 L 192.84375 270.414062 L 192.808594 268.605469 L 194.351562 269.546875 L 194.386719 271.351562 M 186.863281 266.765625 L 185.320312 265.824219 L 185.285156 264.015625 L 186.832031 264.960938 L 186.863281 266.765625 M 180.109375 262.648438 L 178.371094 261.589844 L 178.339844 259.78125 L 180.078125 260.839844 L 180.109375 262.648438 M 172.78125 258.183594 L 171.042969 257.121094 L 171.011719 255.3125 L 172.75 256.375 L 172.78125 258.183594 M 166.703125 254.472656 L 166.667969 252.664062 L 166.703125 254.476562 "/>
<path style=" stroke:none;fill-rule:nonzero;fill:rgb(79.60968%,43.139648%,5.488586%);fill-opacity:1;" d="M 171.042969 257.121094 L 166.703125 254.472656 L 166.671875 252.667969 L 171.011719 255.3125 L 171.042969 257.121094 "/>
<path style=" stroke:none;fill-rule:nonzero;fill:rgb(8.239746%,10.978699%,16.468811%);fill-opacity:1;" d="M 178.371094 261.589844 L 172.78125 258.183594 L 172.75 256.375 L 178.339844 259.78125 L 178.371094 261.589844 "/>
<path style=" stroke:none;fill-rule:nonzero;fill:rgb(8.239746%,10.978699%,16.468811%);fill-opacity:1;" d="M 185.320312 265.824219 L 180.109375 262.648438 L 180.078125 260.839844 L 185.285156 264.015625 L 185.320312 265.824219 "/>
<path style=" stroke:none;fill-rule:nonzero;fill:rgb(8.239746%,10.978699%,16.468811%);fill-opacity:1;" d="M 192.84375 270.414062 L 186.863281 266.765625 L 186.832031 264.960938 L 192.808594 268.605469 L 192.84375 270.414062 "/>
<path style=" stroke:none;fill-rule:nonzero;fill:rgb(8.239746%,10.978699%,16.468811%);fill-opacity:1;" d="M 200.558594 275.113281 L 194.386719 271.351562 L 194.351562 269.546875 L 200.523438 273.308594 L 200.558594 275.113281 "/>
<path style=" stroke:none;fill-rule:nonzero;fill:rgb(8.239746%,10.978699%,16.468811%);fill-opacity:1;" d="M 205.1875 277.9375 L 201.714844 275.820312 L 201.683594 274.011719 L 205.152344 276.128906 L 205.1875 277.9375 "/>
<g clip-path="url(#clip3)" clip-rule="nonzero">
<path style=" stroke:none;fill-rule:nonzero;fill:rgb(19.999695%,29.798889%,47.44873%);fill-opacity:1;" d="M 289.414062 345.425781 L 245.777344 318.675781 L 245.058594 280.242188 L 288.707031 307.644531 L 289.414062 345.425781 "/>
</g>
<path style=" stroke:none;fill-rule:nonzero;fill:rgb(12.548828%,16.468811%,25.099182%);fill-opacity:1;" d="M 288.191406 343.328125 L 247.667969 317.96875 L 247.015625 283.207031 L 287.542969 308.40625 L 288.191406 343.328125 "/>
<path style=" stroke:none;fill-rule:nonzero;fill:rgb(96.469116%,52.938843%,7.058716%);fill-opacity:1;" d="M 252.058594 287.199219 L 247.71875 284.453125 L 248.328125 317.414062 L 252.675781 320.160156 L 252.058594 287.199219 "/>
<path style=" stroke:none;fill-rule:nonzero;fill:rgb(10.198975%,13.328552%,20.388794%);fill-opacity:1;" d="M 260.007812 324.785156 L 254.414062 321.25 L 254.203125 309.957031 L 259.796875 313.371094 L 260.007812 324.785156 M 259.761719 311.5625 L 254.167969 308.152344 L 253.976562 297.871094 L 259.570312 301.28125 L 259.761719 311.5625 M 259.535156 299.472656 L 253.941406 296.066406 L 253.796875 288.296875 L 259.390625 291.832031 L 259.535156 299.472656 "/>
<path style=" stroke:none;fill-rule:nonzero;fill:rgb(10.198975%,13.328552%,20.388794%);fill-opacity:1;" d="M 266.957031 329.175781 L 261.742188 325.886719 L 261.53125 314.425781 L 266.738281 317.601562 L 266.957031 329.175781 M 266.707031 315.796875 L 261.496094 312.617188 L 261.304688 302.34375 L 266.515625 305.515625 L 266.707031 315.796875 M 266.480469 303.707031 L 261.269531 300.535156 L 261.132812 293.140625 L 266.347656 296.425781 L 266.480469 303.707031 "/>
<path style=" stroke:none;fill-rule:nonzero;fill:rgb(10.198975%,13.328552%,20.388794%);fill-opacity:1;" d="M 274.480469 333.925781 L 268.503906 330.148438 L 268.285156 318.546875 L 274.257812 322.1875 L 274.480469 333.925781 M 274.226562 320.378906 L 268.25 316.738281 L 268.058594 306.457031 L 274.035156 310.101562 L 274.226562 320.378906 M 274 308.292969 L 268.023438 304.648438 L 267.882812 297.195312 L 273.863281 300.976562 L 274 308.292969 "/>
<path style=" stroke:none;fill-rule:nonzero;fill:rgb(10.198975%,13.328552%,20.388794%);fill-opacity:1;" d="M 282.199219 338.796875 L 276.023438 334.902344 L 275.808594 323.128906 L 281.976562 326.894531 L 282.199219 338.796875 M 281.941406 325.085938 L 275.773438 321.320312 L 275.582031 311.042969 L 281.75 314.804688 L 281.941406 325.085938 M 281.71875 312.996094 L 275.546875 309.234375 L 275.410156 301.953125 L 281.585938 305.855469 L 281.71875 312.996094 "/>
<path style=" stroke:none;fill-rule:nonzero;fill:rgb(10.198975%,13.328552%,20.388794%);fill-opacity:1;" d="M 286.832031 341.722656 L 283.359375 339.527344 L 283.136719 327.597656 L 286.605469 329.714844 L 286.574219 327.90625 L 283.101562 325.792969 L 282.910156 315.511719 L 286.378906 317.625 L 286.363281 316.644531 L 286.832031 341.722656 M 286.347656 315.820312 L 282.875 313.703125 L 282.742188 306.585938 L 286.214844 308.777344 L 286.347656 315.820312 "/>
<path style=" stroke:none;fill-rule:nonzero;fill:rgb(17.649841%,23.529053%,36.079407%);fill-opacity:1;" d="M 245.058594 280.242188 L 269.140625 270.953125 L 313.933594 297.363281 L 288.707031 307.644531 L 245.058594 280.242188 "/>
<g clip-path="url(#clip4)" clip-rule="nonzero">
<path style=" stroke:none;fill-rule:nonzero;fill:rgb(12.548828%,16.468811%,25.099182%);fill-opacity:1;" d="M 288.707031 307.644531 L 313.933594 297.363281 L 314.628906 334.746094 L 289.414062 345.425781 L 288.707031 307.644531 "/>
</g>
<path style=" stroke:none;fill-rule:nonzero;fill:rgb(10.198975%,13.328552%,20.388794%);fill-opacity:1;" d="M 286.363281 316.644531 L 286.347656 315.820312 L 286.363281 316.644531 M 282.910156 315.511719 L 281.75 314.804688 L 281.71875 312.996094 L 282.875 313.703125 L 282.910156 315.511719 M 275.582031 311.042969 L 274.035156 310.101562 L 274 308.292969 L 275.546875 309.234375 L 275.582031 311.042969 M 268.058594 306.457031 L 266.515625 305.515625 L 266.480469 303.707031 L 268.023438 304.648438 L 268.058594 306.457031 M 261.304688 302.34375 L 259.570312 301.28125 L 259.535156 299.472656 L 261.269531 300.535156 L 261.304688 302.34375 M 253.976562 297.871094 L 252.238281 296.8125 L 252.207031 295.003906 L 253.941406 296.066406 L 253.976562 297.871094 "/>
<path style=" stroke:none;fill-rule:nonzero;fill:rgb(79.60968%,43.139648%,5.488586%);fill-opacity:1;" d="M 252.238281 296.8125 L 247.894531 294.167969 L 247.863281 292.359375 L 252.207031 295.003906 L 252.238281 296.8125 "/>
<path style=" stroke:none;fill-rule:nonzero;fill:rgb(8.239746%,10.978699%,16.468811%);fill-opacity:1;" d="M 259.570312 301.28125 L 253.976562 297.871094 L 253.941406 296.066406 L 259.535156 299.472656 L 259.570312 301.28125 "/>
<path style=" stroke:none;fill-rule:nonzero;fill:rgb(8.239746%,10.978699%,16.468811%);fill-opacity:1;" d="M 266.515625 305.515625 L 261.304688 302.34375 L 261.269531 300.535156 L 266.480469 303.707031 L 266.515625 305.515625 "/>
<path style=" stroke:none;fill-rule:nonzero;fill:rgb(8.239746%,10.978699%,16.468811%);fill-opacity:1;" d="M 274.035156 310.101562 L 268.058594 306.457031 L 268.023438 304.648438 L 274 308.292969 L 274.035156 310.101562 "/>
<path style=" stroke:none;fill-rule:nonzero;fill:rgb(8.239746%,10.978699%,16.468811%);fill-opacity:1;" d="M 281.75 314.804688 L 275.582031 311.042969 L 275.546875 309.234375 L 281.71875 312.996094 L 281.75 314.804688 "/>
<path style=" stroke:none;fill-rule:nonzero;fill:rgb(8.239746%,10.978699%,16.468811%);fill-opacity:1;" d="M 286.378906 317.625 L 282.910156 315.511719 L 282.875 313.703125 L 286.347656 315.820312 L 286.363281 316.644531 L 286.378906 317.625 "/>
<path style=" stroke:none;fill-rule:nonzero;fill:rgb(10.198975%,13.328552%,20.388794%);fill-opacity:1;" d="M 283.136719 327.597656 L 281.976562 326.894531 L 281.941406 325.085938 L 283.101562 325.792969 L 283.136719 327.597656 M 275.808594 323.128906 L 274.257812 322.1875 L 274.226562 320.378906 L 275.773438 321.320312 L 275.808594 323.128906 M 268.285156 318.546875 L 266.738281 317.601562 L 266.707031 315.796875 L 268.25 316.738281 L 268.285156 318.546875 M 261.53125 314.425781 L 259.796875 313.371094 L 259.761719 311.5625 L 261.496094 312.617188 L 261.53125 314.425781 M 254.203125 309.957031 L 252.464844 308.898438 L 252.429688 307.09375 L 254.167969 308.152344 L 254.203125 309.957031 "/>
<path style=" stroke:none;fill-rule:nonzero;fill:rgb(79.60968%,43.139648%,5.488586%);fill-opacity:1;" d="M 252.464844 308.898438 L 248.125 306.25 L 248.089844 304.441406 L 252.429688 307.09375 L 252.464844 308.898438 "/>
<path style=" stroke:none;fill-rule:nonzero;fill:rgb(8.239746%,10.978699%,16.468811%);fill-opacity:1;" d="M 259.796875 313.371094 L 254.203125 309.957031 L 254.167969 308.152344 L 259.761719 311.5625 L 259.796875 313.371094 "/>
<path style=" stroke:none;fill-rule:nonzero;fill:rgb(8.239746%,10.978699%,16.468811%);fill-opacity:1;" d="M 266.738281 317.601562 L 261.53125 314.425781 L 261.496094 312.617188 L 266.707031 315.796875 L 266.738281 317.601562 "/>
<path style=" stroke:none;fill-rule:nonzero;fill:rgb(8.239746%,10.978699%,16.468811%);fill-opacity:1;" d="M 274.257812 322.1875 L 268.285156 318.546875 L 268.25 316.738281 L 274.226562 320.378906 L 274.257812 322.1875 "/>
<path style=" stroke:none;fill-rule:nonzero;fill:rgb(8.239746%,10.978699%,16.468811%);fill-opacity:1;" d="M 281.976562 326.894531 L 275.808594 323.128906 L 275.773438 321.320312 L 281.941406 325.085938 L 281.976562 326.894531 "/>
<path style=" stroke:none;fill-rule:nonzero;fill:rgb(8.239746%,10.978699%,16.468811%);fill-opacity:1;" d="M 286.605469 329.714844 L 283.136719 327.597656 L 283.101562 325.792969 L 286.574219 327.90625 L 286.605469 329.714844 "/>
<path style=" stroke:none;fill-rule:nonzero;fill:rgb(82.749939%,82.348633%,82.348633%);fill-opacity:1;" d="M 196.136719 243.824219 L 188.6875 239.03125 L 188.085938 206.773438 L 195.507812 211.429688 L 196.136719 243.824219 "/>
<path style=" stroke:none;fill-rule:nonzero;fill:rgb(39.608765%,38.42926%,38.819885%);fill-opacity:1;" d="M 188.085938 206.773438 L 198.636719 202.703125 L 206.390625 207.234375 L 195.507812 211.429688 L 188.085938 206.773438 "/>
<path style=" stroke:none;fill-rule:nonzero;fill:rgb(56.858826%,56.079102%,56.079102%);fill-opacity:1;" d="M 195.515625 211.429688 L 206.390625 207.234375 L 206.976562 238.617188 L 196.136719 243.824219 L 195.515625 211.429688 "/>
<path style=" stroke:none;fill-rule:nonzero;fill:rgb(82.749939%,82.348633%,82.348633%);fill-opacity:1;" d="M 279.636719 295.921875 L 272.191406 291.125 L 271.589844 258.863281 L 279.007812 263.523438 L 279.636719 295.921875 "/>
<path style=" stroke:none;fill-rule:nonzero;fill:rgb(39.608765%,38.42926%,38.819885%);fill-opacity:1;" d="M 271.589844 258.863281 L 282.140625 254.792969 L 289.898438 259.328125 L 279.007812 263.523438 L 271.589844 258.863281 "/>
<path style=" stroke:none;fill-rule:nonzero;fill:rgb(56.858826%,56.079102%,56.079102%);fill-opacity:1;" d="M 279.019531 263.523438 L 289.898438 259.328125 L 290.488281 290.710938 L 279.636719 295.921875 L 279.019531 263.523438 "/>
<path style=" stroke:none;fill-rule:nonzero;fill:rgb(39.608765%,38.42926%,38.819885%);fill-opacity:1;" d="M 224.679688 220.050781 L 235.230469 215.976562 L 242.984375 220.507812 L 232.101562 224.707031 L 224.679688 220.050781 "/>
<path style=" stroke:none;fill-rule:nonzero;fill:rgb(48.239136%,47.44873%,47.44873%);fill-opacity:1;" d="M 232.125 224.882812 L 242.972656 219.671875 L 289.703125 248.597656 L 278.816406 253.761719 L 232.125 224.882812 "/>
<path style=" stroke:none;fill-rule:nonzero;fill:rgb(48.239136%,47.44873%,47.44873%);fill-opacity:1;" d="M 187.921875 197.351562 L 197.410156 193.429688 L 242.371094 220.871094 L 224.574219 220.015625 L 187.921875 197.351562 "/>
<path style=" stroke:none;fill-rule:nonzero;fill:rgb(82.749939%,82.348633%,82.348633%);fill-opacity:1;" d="M 232.132812 224.914062 L 224.679688 220.121094 L 223.621094 163.582031 L 231.042969 168.246094 L 232.132812 224.914062 "/>
<path style=" stroke:none;fill-rule:nonzero;fill:rgb(39.608765%,38.42926%,38.819885%);fill-opacity:1;" d="M 223.621094 163.582031 L 234.175781 159.515625 L 241.925781 164.046875 L 231.042969 168.246094 L 223.621094 163.582031 "/>
<path style=" stroke:none;fill-rule:nonzero;fill:rgb(56.858826%,56.079102%,56.079102%);fill-opacity:1;" d="M 231.050781 168.242188 L 241.925781 164.046875 L 242.972656 219.710938 L 232.132812 224.914062 L 231.050781 168.242188 "/>
<path style=" stroke:none;fill-rule:nonzero;fill:rgb(82.749939%,82.348633%,82.348633%);fill-opacity:1;" d="M 187.921875 197.351562 L 188.101562 206.980469 L 279 263.5625 L 278.816406 253.761719 L 187.921875 197.351562 "/>
<path style=" stroke:none;fill-rule:nonzero;fill:rgb(56.858826%,56.079102%,56.079102%);fill-opacity:1;" d="M 278.816406 253.761719 L 289.703125 248.597656 L 289.902344 259.371094 L 279 263.5625 L 278.816406 253.761719 "/>
<path style=" stroke:none;fill-rule:nonzero;fill:rgb(19.999695%,29.798889%,47.44873%);fill-opacity:1;" d="M 254.554688 203.25 L 192.914062 165.46875 L 191.898438 111.175781 L 253.558594 149.886719 L 254.554688 203.25 "/>
<path style=" stroke:none;fill-rule:nonzero;fill:rgb(12.548828%,16.468811%,25.099182%);fill-opacity:1;" d="M 252.832031 200.289062 L 195.589844 164.46875 L 194.671875 115.355469 L 251.90625 150.957031 L 252.832031 200.289062 "/>
<path style=" stroke:none;fill-rule:nonzero;fill:rgb(96.469116%,52.938843%,7.058716%);fill-opacity:1;" d="M 201.789062 121 L 195.65625 117.121094 L 196.527344 163.683594 L 202.65625 167.558594 L 201.789062 121 "/>
<path style=" stroke:none;fill-rule:nonzero;fill:rgb(10.198975%,13.328552%,20.388794%);fill-opacity:1;" d="M 213.023438 174.09375 L 205.109375 169.105469 L 204.816406 153.148438 L 212.722656 157.96875 L 213.023438 174.09375 M 212.675781 155.414062 L 204.765625 150.59375 L 204.496094 136.078125 L 212.402344 140.898438 L 212.675781 155.414062 M 212.355469 138.34375 L 204.449219 133.523438 L 204.246094 122.550781 L 212.148438 127.542969 L 212.355469 138.34375 "/>
<path style=" stroke:none;fill-rule:nonzero;fill:rgb(10.198975%,13.328552%,20.388794%);fill-opacity:1;" d="M 222.835938 180.292969 L 215.476562 175.644531 L 215.171875 159.460938 L 222.527344 163.945312 L 222.835938 180.292969 M 222.480469 161.394531 L 215.125 156.910156 L 214.851562 142.390625 L 222.210938 146.878906 L 222.480469 161.394531 M 222.160156 144.320312 L 214.800781 139.835938 L 214.605469 129.398438 L 221.96875 134.027344 L 222.160156 144.320312 "/>
<path style=" stroke:none;fill-rule:nonzero;fill:rgb(10.198975%,13.328552%,20.388794%);fill-opacity:1;" d="M 233.464844 187 L 225.019531 181.667969 L 224.710938 165.277344 L 233.15625 170.425781 L 233.464844 187 M 233.109375 167.871094 L 224.660156 162.722656 L 224.386719 148.203125 L 232.835938 153.355469 L 233.109375 167.871094 M 232.789062 150.800781 L 224.34375 145.648438 L 224.144531 135.121094 L 232.59375 140.460938 L 232.789062 150.800781 "/>
<path style=" stroke:none;fill-rule:nonzero;fill:rgb(10.198975%,13.328552%,20.388794%);fill-opacity:1;" d="M 244.371094 193.886719 L 235.644531 188.382812 L 235.335938 171.753906 L 244.058594 177.070312 L 244.371094 193.886719 M 244.007812 174.519531 L 235.289062 169.203125 L 235.015625 154.683594 L 243.738281 160 L 244.007812 174.519531 M 243.691406 157.441406 L 234.96875 152.125 L 234.777344 141.839844 L 243.503906 147.355469 L 243.691406 157.441406 "/>
<path style=" stroke:none;fill-rule:nonzero;fill:rgb(10.198975%,13.328552%,20.388794%);fill-opacity:1;" d="M 250.910156 198.019531 L 246.007812 194.921875 L 245.691406 178.070312 L 250.597656 181.054688 L 250.910156 198.019531 M 250.546875 178.527344 L 250.546875 178.503906 L 245.644531 175.515625 L 245.371094 160.996094 L 250.273438 163.984375 L 250.546875 178.527344 M 250.230469 161.429688 L 245.324219 158.441406 L 245.132812 148.386719 L 250.042969 151.488281 L 250.226562 161.429688 "/>
<path style=" stroke:none;fill-rule:nonzero;fill:rgb(17.649841%,23.529053%,36.079407%);fill-opacity:1;" d="M 191.898438 111.175781 L 225.925781 98.050781 L 289.191406 135.351562 L 253.558594 149.886719 L 191.898438 111.175781 "/>
<path style=" stroke:none;fill-rule:nonzero;fill:rgb(12.548828%,16.468811%,25.099182%);fill-opacity:1;" d="M 253.558594 149.886719 L 289.191406 135.351562 L 290.179688 188.164062 L 254.554688 203.25 L 253.558594 149.886719 "/>
<path style=" stroke:none;fill-rule:nonzero;fill:rgb(10.198975%,13.328552%,20.388794%);fill-opacity:1;" d="M 250.273438 163.984375 L 250.226562 161.429688 L 250.230469 161.429688 L 250.273438 163.984375 M 245.371094 160.996094 L 243.738281 160 L 243.691406 157.441406 L 245.324219 158.441406 L 245.371094 160.996094 M 235.015625 154.683594 L 232.835938 153.355469 L 232.789062 150.800781 L 234.96875 152.125 L 235.015625 154.683594 M 224.386719 148.203125 L 222.210938 146.878906 L 222.160156 144.320312 L 224.34375 145.648438 L 224.386719 148.203125 M 214.851562 142.390625 L 212.402344 140.898438 L 212.355469 138.34375 L 214.800781 139.835938 L 214.851562 142.390625 M 204.496094 136.078125 L 202.042969 134.585938 L 201.996094 132.03125 L 204.449219 133.523438 L 204.496094 136.078125 M 195.914062 130.847656 L 195.910156 130.847656 L 195.863281 128.289062 L 195.867188 128.292969 L 195.914062 130.847656 "/>
<path style=" stroke:none;fill-rule:nonzero;fill:rgb(79.60968%,43.139648%,5.488586%);fill-opacity:1;" d="M 202.042969 134.585938 L 195.914062 130.847656 L 195.867188 128.292969 L 201.996094 132.03125 L 202.042969 134.585938 "/>
<path style=" stroke:none;fill-rule:nonzero;fill:rgb(8.239746%,10.978699%,16.468811%);fill-opacity:1;" d="M 212.402344 140.898438 L 204.496094 136.078125 L 204.449219 133.523438 L 212.355469 138.34375 L 212.402344 140.898438 "/>
<path style=" stroke:none;fill-rule:nonzero;fill:rgb(8.239746%,10.978699%,16.468811%);fill-opacity:1;" d="M 222.210938 146.878906 L 214.851562 142.390625 L 214.800781 139.835938 L 222.160156 144.320312 L 222.210938 146.878906 "/>
<path style=" stroke:none;fill-rule:nonzero;fill:rgb(8.239746%,10.978699%,16.468811%);fill-opacity:1;" d="M 232.835938 153.355469 L 224.386719 148.203125 L 224.34375 145.648438 L 232.789062 150.800781 L 232.835938 153.355469 "/>
<path style=" stroke:none;fill-rule:nonzero;fill:rgb(8.239746%,10.978699%,16.468811%);fill-opacity:1;" d="M 243.738281 160 L 235.015625 154.683594 L 234.96875 152.125 L 243.691406 157.441406 L 243.738281 160 "/>
<path style=" stroke:none;fill-rule:nonzero;fill:rgb(8.239746%,10.978699%,16.468811%);fill-opacity:1;" d="M 250.273438 163.984375 L 245.371094 160.996094 L 245.324219 158.441406 L 250.230469 161.429688 L 250.273438 163.984375 "/>
<path style=" stroke:none;fill-rule:nonzero;fill:rgb(10.198975%,13.328552%,20.388794%);fill-opacity:1;" d="M 250.601562 181.058594 L 250.597656 181.054688 L 250.546875 178.527344 L 250.601562 181.058594 M 245.691406 178.070312 L 244.058594 177.070312 L 244.007812 174.519531 L 245.644531 175.515625 L 245.691406 178.070312 M 235.335938 171.753906 L 233.15625 170.425781 L 233.109375 167.871094 L 235.289062 169.203125 L 235.335938 171.753906 M 224.710938 165.277344 L 222.527344 163.945312 L 222.480469 161.394531 L 224.660156 162.722656 L 224.710938 165.277344 M 215.171875 159.460938 L 212.722656 157.96875 L 212.675781 155.414062 L 215.125 156.910156 L 215.171875 159.460938 M 204.816406 153.148438 L 202.359375 151.652344 L 202.3125 149.097656 L 204.765625 150.59375 L 204.816406 153.148438 M 196.230469 147.914062 L 196.21875 147.296875 L 196.234375 147.914062 "/>
<path style=" stroke:none;fill-rule:nonzero;fill:rgb(79.60968%,43.139648%,5.488586%);fill-opacity:1;" d="M 202.359375 151.652344 L 196.230469 147.914062 L 196.21875 147.296875 L 196.1875 145.359375 L 202.3125 149.097656 L 202.359375 151.652344 "/>
<path style=" stroke:none;fill-rule:nonzero;fill:rgb(8.239746%,10.978699%,16.468811%);fill-opacity:1;" d="M 212.722656 157.96875 L 204.816406 153.148438 L 204.765625 150.59375 L 212.675781 155.414062 L 212.722656 157.96875 "/>
<path style=" stroke:none;fill-rule:nonzero;fill:rgb(8.239746%,10.978699%,16.468811%);fill-opacity:1;" d="M 222.527344 163.945312 L 215.171875 159.460938 L 215.125 156.910156 L 222.480469 161.394531 L 222.527344 163.945312 "/>
<path style=" stroke:none;fill-rule:nonzero;fill:rgb(8.239746%,10.978699%,16.468811%);fill-opacity:1;" d="M 233.15625 170.425781 L 224.710938 165.277344 L 224.660156 162.722656 L 233.109375 167.871094 L 233.15625 170.425781 "/>
<path style=" stroke:none;fill-rule:nonzero;fill:rgb(8.239746%,10.978699%,16.468811%);fill-opacity:1;" d="M 244.058594 177.070312 L 235.335938 171.753906 L 235.289062 169.203125 L 244.007812 174.519531 L 244.058594 177.070312 "/>
<path style=" stroke:none;fill-rule:nonzero;fill:rgb(8.239746%,10.978699%,16.468811%);fill-opacity:1;" d="M 250.597656 181.054688 L 245.691406 178.070312 L 245.644531 175.515625 L 250.546875 178.503906 L 250.546875 178.527344 L 250.597656 181.054688 "/>
</g>
</svg>
