<svg xmlns="http://www.w3.org/2000/svg" data-name="Слой 1" viewBox="0 0 128 160" x="0px" y="0px"><title>ic_no_data</title><path d="M109.5,19.05c-.11-.11-.46-.45-.55-.56a65,65,0,0,0-10.41-8.34,63.8,63.8,0,0,0-70.1.66A64.63,64.63,0,0,0,13.19,25.12,63.84,63.84,0,0,0,18.5,109c.1.1.44.46.55.55A64,64,0,0,0,125.42,46a63.47,63.47,0,0,0-6.63-15A64.28,64.28,0,0,0,109.5,19.05ZM64,4a59.78,59.78,0,0,1,41,16.21l-12.1,12.1C88.08,27.5,76,25,64,25c-15.41,0-31,4.12-31,12V90a5.81,5.81,0,0,0,.31,1.86L20.21,105a59.86,59.86,0,0,1-6-74.46A60.4,60.4,0,0,1,34.69,11.66,59.6,59.6,0,0,1,64,4ZM91,72.33c0,3.27-10.52,8-27,8a74.47,74.47,0,0,1-12.5-1L64.16,66.67c10.6,0,21.25-2,26.84-5.79ZM62.52,62.65C46.89,62.38,37,57.83,37,54.67V43.21C42.62,47,53.35,49,64,49a80.85,80.85,0,0,0,13.23-1.06ZM37,88.17V78.55a25.81,25.81,0,0,0,6.6,3Zm0-15.84V60.88C41.68,64.06,49.9,66,58.67,66.5L46.85,78.32C40.59,76.64,37,74.24,37,72.33ZM91,54.67c0,3-8.72,7.16-22.73,7.89L84.68,46.15A25.44,25.44,0,0,0,91,43.21Zm-8.4-12.1A65.12,65.12,0,0,1,64,45c-16.48,0-27-4.74-27-8s10.52-8,27-8c13.55,0,23.06,3.2,26,6.15ZM48.07,82.75A77,77,0,0,0,64,84.33c10.65,0,21.38-2,27-5.78V90c0,3.26-10.52,8-27,8-12.82,0-22-2.87-25.49-5.68ZM64,124a59.45,59.45,0,0,1-23.7-4.89A60.49,60.49,0,0,1,23,107.79L35.65,95.18C40.75,99.67,52.43,102,64,102c15.41,0,31-4.12,31-12V37a5.29,5.29,0,0,0-.11-1.06L107.79,23a60.36,60.36,0,0,1,11.87,18.57,59.92,59.92,0,0,1-2.17,49.55A60.36,60.36,0,0,1,95.57,115,59.53,59.53,0,0,1,64,124Z"/><text xmlns="http://www.w3.org/2000/svg" x="45" y="143" fill="#000000" font-size="10px" font-weight="bold" font-family="'Helvetica Neue', Helvetica, Arial-Unicode, Arial, Sans-serif">NO DATA</text></svg>