<?xml version="1.0" encoding="UTF-8"?>
<svg xmlns="http://www.w3.org/2000/svg" xmlns:xlink="http://www.w3.org/1999/xlink" width="375pt" height="374.999991pt" viewBox="0 0 375 374.999991" version="1.2">
<defs>
<clipPath id="clip1">
  <path d="M 39 130 L 49 130 L 49 146 L 39 146 Z M 39 130 "/>
</clipPath>
<clipPath id="clip2">
  <path d="M 72.988281 52.492188 L 293.023438 134.300781 L 224.023438 319.886719 L 3.988281 238.078125 Z M 72.988281 52.492188 "/>
</clipPath>
<clipPath id="clip3">
  <path d="M 73.035156 52.371094 L 293.066406 134.179688 L 224.066406 319.765625 L 4.03125 237.957031 Z M 73.035156 52.371094 "/>
</clipPath>
<clipPath id="clip4">
  <path d="M 73.035156 52.371094 L 293.035156 134.167969 L 224 319.84375 L 4 238.046875 Z M 73.035156 52.371094 "/>
</clipPath>
<clipPath id="clip5">
  <path d="M 25 59 L 286 59 L 286 274 L 25 274 Z M 25 59 "/>
</clipPath>
<clipPath id="clip6">
  <path d="M 72.988281 52.492188 L 293.023438 134.300781 L 224.023438 319.886719 L 3.988281 238.078125 Z M 72.988281 52.492188 "/>
</clipPath>
<clipPath id="clip7">
  <path d="M 73.035156 52.371094 L 293.066406 134.179688 L 224.066406 319.765625 L 4.03125 237.957031 Z M 73.035156 52.371094 "/>
</clipPath>
<clipPath id="clip8">
  <path d="M 73.035156 52.371094 L 293.035156 134.167969 L 224 319.84375 L 4 238.046875 Z M 73.035156 52.371094 "/>
</clipPath>
<clipPath id="clip9">
  <path d="M 243 131 L 268 131 L 268 153 L 243 153 Z M 243 131 "/>
</clipPath>
<clipPath id="clip10">
  <path d="M 72.988281 52.492188 L 293.023438 134.300781 L 224.023438 319.886719 L 3.988281 238.078125 Z M 72.988281 52.492188 "/>
</clipPath>
<clipPath id="clip11">
  <path d="M 73.035156 52.371094 L 293.066406 134.179688 L 224.066406 319.765625 L 4.03125 237.957031 Z M 73.035156 52.371094 "/>
</clipPath>
<clipPath id="clip12">
  <path d="M 73.035156 52.371094 L 293.035156 134.167969 L 224 319.84375 L 4 238.046875 Z M 73.035156 52.371094 "/>
</clipPath>
<clipPath id="clip13">
  <path d="M 258 158 L 267 158 L 267 173 L 258 173 Z M 258 158 "/>
</clipPath>
<clipPath id="clip14">
  <path d="M 72.988281 52.492188 L 293.023438 134.300781 L 224.023438 319.886719 L 3.988281 238.078125 Z M 72.988281 52.492188 "/>
</clipPath>
<clipPath id="clip15">
  <path d="M 73.035156 52.371094 L 293.066406 134.179688 L 224.066406 319.765625 L 4.03125 237.957031 Z M 73.035156 52.371094 "/>
</clipPath>
<clipPath id="clip16">
  <path d="M 73.035156 52.371094 L 293.035156 134.167969 L 224 319.84375 L 4 238.046875 Z M 73.035156 52.371094 "/>
</clipPath>
<clipPath id="clip17">
  <path d="M 106 257 L 117 257 L 117 265 L 106 265 Z M 106 257 "/>
</clipPath>
<clipPath id="clip18">
  <path d="M 72.988281 52.492188 L 293.023438 134.300781 L 224.023438 319.886719 L 3.988281 238.078125 Z M 72.988281 52.492188 "/>
</clipPath>
<clipPath id="clip19">
  <path d="M 73.035156 52.371094 L 293.066406 134.179688 L 224.066406 319.765625 L 4.03125 237.957031 Z M 73.035156 52.371094 "/>
</clipPath>
<clipPath id="clip20">
  <path d="M 73.035156 52.371094 L 293.035156 134.167969 L 224 319.84375 L 4 238.046875 Z M 73.035156 52.371094 "/>
</clipPath>
<clipPath id="clip21">
  <path d="M 93 226 L 156 226 L 156 276 L 93 276 Z M 93 226 "/>
</clipPath>
<clipPath id="clip22">
  <path d="M 72.988281 52.492188 L 293.023438 134.300781 L 224.023438 319.886719 L 3.988281 238.078125 Z M 72.988281 52.492188 "/>
</clipPath>
<clipPath id="clip23">
  <path d="M 73.035156 52.371094 L 293.066406 134.179688 L 224.066406 319.765625 L 4.03125 237.957031 Z M 73.035156 52.371094 "/>
</clipPath>
<clipPath id="clip24">
  <path d="M 73.035156 52.371094 L 293.035156 134.167969 L 224 319.84375 L 4 238.046875 Z M 73.035156 52.371094 "/>
</clipPath>
<clipPath id="clip25">
  <path d="M 30 163 L 252 163 L 252 249 L 30 249 Z M 30 163 "/>
</clipPath>
<clipPath id="clip26">
  <path d="M 72.988281 52.492188 L 293.023438 134.300781 L 224.023438 319.886719 L 3.988281 238.078125 Z M 72.988281 52.492188 "/>
</clipPath>
<clipPath id="clip27">
  <path d="M 73.035156 52.371094 L 293.066406 134.179688 L 224.066406 319.765625 L 4.03125 237.957031 Z M 73.035156 52.371094 "/>
</clipPath>
<clipPath id="clip28">
  <path d="M 73.035156 52.371094 L 293.035156 134.167969 L 224 319.84375 L 4 238.046875 Z M 73.035156 52.371094 "/>
</clipPath>
<clipPath id="clip29">
  <path d="M 74 246 L 161 246 L 161 294 L 74 294 Z M 74 246 "/>
</clipPath>
<clipPath id="clip30">
  <path d="M 72.988281 52.492188 L 293.023438 134.300781 L 224.023438 319.886719 L 3.988281 238.078125 Z M 72.988281 52.492188 "/>
</clipPath>
<clipPath id="clip31">
  <path d="M 73.035156 52.371094 L 293.066406 134.179688 L 224.066406 319.765625 L 4.03125 237.957031 Z M 73.035156 52.371094 "/>
</clipPath>
<clipPath id="clip32">
  <path d="M 73.035156 52.371094 L 293.035156 134.167969 L 224 319.84375 L 4 238.046875 Z M 73.035156 52.371094 "/>
</clipPath>
</defs>
<g id="surface1">
<g clip-path="url(#clip1)" clip-rule="nonzero">
<g clip-path="url(#clip2)" clip-rule="nonzero">
<g clip-path="url(#clip3)" clip-rule="nonzero">
<g clip-path="url(#clip4)" clip-rule="nonzero">
<path style="fill:none;stroke-width:6;stroke-linecap:round;stroke-linejoin:round;stroke:rgb(36.468506%,60.389709%,81.568909%);stroke-opacity:1;stroke-miterlimit:10;" d="M 84.998426 208.500446 C 85.001758 203.700474 84.999142 202.09878 84.997667 197.198689 " transform="matrix(0.842271,0.313154,-0.313545,0.843321,36.126323,-59.802058)"/>
</g>
</g>
</g>
</g>
<g clip-path="url(#clip5)" clip-rule="nonzero">
<g clip-path="url(#clip6)" clip-rule="nonzero">
<g clip-path="url(#clip7)" clip-rule="nonzero">
<g clip-path="url(#clip8)" clip-rule="nonzero">
<path style="fill:none;stroke-width:6;stroke-linecap:round;stroke-linejoin:round;stroke:rgb(36.468506%,60.389709%,81.568909%);stroke-opacity:1;stroke-miterlimit:10;" d="M 84.999087 179.698531 C 84.999071 152.402262 84.999437 131.298813 84.999437 131.298813 C 85.000447 117.198682 96.400272 105.799858 110.498663 105.79878 L 314.598652 105.802563 C 328.701118 105.799972 340.100894 117.199785 340.099884 131.299916 L 340.101635 248.201248 C 340.100625 262.301378 328.700801 273.700203 314.602409 273.70128 L 110.600105 273.69828 C 96.501713 273.699357 85.101937 262.299544 85.098873 248.200927 C 85.098873 248.200927 85.101035 235.499227 85.098277 218.398971 " transform="matrix(0.842271,0.313154,-0.313545,0.843321,36.126323,-59.802058)"/>
</g>
</g>
</g>
</g>
<g clip-path="url(#clip9)" clip-rule="nonzero">
<g clip-path="url(#clip10)" clip-rule="nonzero">
<g clip-path="url(#clip11)" clip-rule="nonzero">
<g clip-path="url(#clip12)" clip-rule="nonzero">
<path style="fill:none;stroke-width:6;stroke-linecap:round;stroke-linejoin:round;stroke:rgb(36.468506%,60.389709%,81.568909%);stroke-opacity:1;stroke-miterlimit:10;" d="M 293.700221 120.50158 C 298.899477 120.502454 301.801586 120.499421 301.801586 120.499421 C 309.101104 120.498569 315.50063 124.097462 319.400229 129.602013 " transform="matrix(0.842271,0.313154,-0.313545,0.843321,36.126323,-59.802058)"/>
</g>
</g>
</g>
</g>
<g clip-path="url(#clip13)" clip-rule="nonzero">
<g clip-path="url(#clip14)" clip-rule="nonzero">
<g clip-path="url(#clip15)" clip-rule="nonzero">
<g clip-path="url(#clip16)" clip-rule="nonzero">
<path style="fill:none;stroke-width:6;stroke-linecap:round;stroke-linejoin:round;stroke:rgb(36.468506%,60.389709%,81.568909%);stroke-opacity:1;stroke-miterlimit:10;" d="M 323.399201 142.101013 C 323.399201 142.101013 323.398688 145.89943 323.401367 151.998756 " transform="matrix(0.842271,0.313154,-0.313545,0.843321,36.126323,-59.802058)"/>
</g>
</g>
</g>
</g>
<g clip-path="url(#clip17)" clip-rule="nonzero">
<g clip-path="url(#clip18)" clip-rule="nonzero">
<g clip-path="url(#clip19)" clip-rule="nonzero">
<g clip-path="url(#clip20)" clip-rule="nonzero">
<path style="fill:none;stroke-width:6;stroke-linecap:round;stroke-linejoin:round;stroke:rgb(36.468506%,60.389709%,81.568909%);stroke-opacity:1;stroke-miterlimit:10;" d="M 206.000884 304.500777 C 204.000865 304.497703 202.100045 304.499482 200.300984 304.500529 " transform="matrix(0.842271,0.313154,-0.313545,0.843321,36.126323,-59.802058)"/>
</g>
</g>
</g>
</g>
<g clip-path="url(#clip21)" clip-rule="nonzero">
<g clip-path="url(#clip22)" clip-rule="nonzero">
<g clip-path="url(#clip23)" clip-rule="nonzero">
<g clip-path="url(#clip24)" clip-rule="nonzero">
<path style="fill:none;stroke-width:6;stroke-linecap:round;stroke-linejoin:round;stroke:rgb(36.468506%,60.389709%,81.568909%);stroke-opacity:1;stroke-miterlimit:10;" d="M 190.700245 304.498988 C 185.500989 304.498113 184.4997 304.499368 184.4997 304.499368 L 184.498631 273.599807 L 240.801619 273.60134 L 240.798613 304.502414 C 240.798613 304.502414 231.698519 304.500245 217.298925 304.502001 " transform="matrix(0.842271,0.313154,-0.313545,0.843321,36.126323,-59.802058)"/>
</g>
</g>
</g>
</g>
<g clip-path="url(#clip25)" clip-rule="nonzero">
<g clip-path="url(#clip26)" clip-rule="nonzero">
<g clip-path="url(#clip27)" clip-rule="nonzero">
<g clip-path="url(#clip28)" clip-rule="nonzero">
<path style="fill:none;stroke-width:6;stroke-linecap:round;stroke-linejoin:round;stroke:rgb(36.468506%,60.389709%,81.568909%);stroke-opacity:1;stroke-miterlimit:10;" d="M 84.999801 236.398367 L 340.197932 236.400253 " transform="matrix(0.842271,0.313154,-0.313545,0.843321,36.126323,-59.802058)"/>
</g>
</g>
</g>
</g>
<g clip-path="url(#clip29)" clip-rule="nonzero">
<g clip-path="url(#clip30)" clip-rule="nonzero">
<g clip-path="url(#clip31)" clip-rule="nonzero">
<g clip-path="url(#clip32)" clip-rule="nonzero">
<path style="fill:none;stroke-width:6;stroke-linecap:round;stroke-linejoin:round;stroke:rgb(36.468506%,60.389709%,81.568909%);stroke-opacity:1;stroke-miterlimit:10;" d="M 240.700929 304.501631 L 257.998557 304.498355 L 257.999587 319.500965 L 167.201586 319.501185 L 167.200557 304.498575 L 184.4997 304.499368 " transform="matrix(0.842271,0.313154,-0.313545,0.843321,36.126323,-59.802058)"/>
</g>
</g>
</g>
</g>
</g>
</svg>
